<?xml version="1.0" standalone="no"?>
<!DOCTYPE svg PUBLIC "-//W3C//DTD SVG 20010904//EN"
 "http://www.w3.org/TR/2001/REC-SVG-20010904/DTD/svg10.dtd">
<svg version="1.0" xmlns="http://www.w3.org/2000/svg"
 width="512.000000pt" height="512.000000pt" viewBox="0 0 512.000000 512.000000"
 preserveAspectRatio="xMidYMid meet">
<metadata>
Created by potrace 1.11, written by Peter Selinger 2001-2013
</metadata>
<g transform="translate(0.000000,512.000000) scale(0.100000,-0.100000)"
fill="#000000" stroke="none">
<path d="M0 2560 l0 -2560 363 0 362 0 12 27 c6 16 16 44 22 64 12 38 137 179
158 179 27 0 21 23 -27 111 -28 50 -55 98 -60 108 -36 71 -60 195 -60 314 0
78 23 224 39 256 6 11 11 30 11 43 0 13 4 28 9 33 5 6 13 27 16 48 11 56 -10
46 -40 -20 -14 -32 -29 -65 -33 -73 -5 -8 -33 -27 -63 -43 -59 -30 -118 -30
-150 -2 -8 8 -20 15 -26 15 -5 0 -28 13 -50 29 -40 29 -78 92 -108 180 -20 58
-20 281 0 407 13 80 23 107 57 162 38 61 59 87 168 208 124 138 226 158 336
68 23 -18 47 -34 52 -34 14 0 106 -98 153 -164 28 -38 48 -83 60 -129 11 -39
21 -72 23 -75 3 -2 16 0 31 5 l25 8 4 150 c3 142 5 154 35 222 42 98 41 127
-10 188 -22 27 -47 54 -54 59 -24 19 -73 129 -88 201 -9 39 -21 85 -28 103
-11 27 -11 36 -1 53 11 17 11 26 -2 54 -21 44 -14 122 14 149 20 20 22 20 34
4 8 -11 15 -66 19 -150 6 -153 25 -218 90 -308 47 -65 124 -130 152 -129 11 0
39 10 62 22 23 12 67 36 98 52 l57 30 -6 60 c-3 33 -9 86 -12 118 -10 85 26
68 41 -21 4 -23 11 -44 16 -48 5 -3 9 -14 9 -25 0 -29 29 -81 59 -106 18 -16
39 -22 73 -23 26 0 49 4 52 8 3 5 -9 28 -25 51 -17 23 -41 70 -53 104 -39 110
-98 221 -140 265 -36 37 -39 45 -28 62 6 11 12 29 12 40 0 28 68 117 108 140
54 33 111 27 170 -17 28 -21 63 -57 78 -80 15 -24 31 -40 35 -37 13 8 11 24
-11 69 -10 22 -15 41 -10 43 9 3 103 -51 132 -76 13 -11 43 -15 104 -16 l86
-1 30 38 c16 20 38 37 48 37 10 0 25 6 32 13 7 7 47 29 88 49 69 33 76 35 93
21 9 -9 18 -14 20 -12 2 2 11 16 20 32 10 15 23 27 30 26 16 0 85 -91 103
-136 8 -19 20 -33 27 -30 7 2 22 33 34 70 11 36 30 79 40 94 11 15 28 53 37
83 10 30 32 87 51 125 18 39 46 102 60 140 15 39 44 102 65 140 21 39 41 81
45 94 7 24 93 169 172 294 58 90 225 259 283 285 25 12 70 28 101 37 50 14 63
14 128 0 40 -8 87 -15 106 -15 18 0 46 -7 61 -15 16 -8 41 -15 56 -15 15 0 47
-6 70 -14 42 -14 169 -28 433 -46 72 -5 137 -11 145 -15 18 -7 107 -147 142
-225 26 -56 49 -194 47 -286 -1 -118 -55 -264 -129 -346 -23 -27 -47 -48 -53
-48 -7 0 -29 -9 -50 -20 -49 -26 -71 -25 -91 5 -19 29 -38 31 -109 11 -57 -16
-482 -30 -562 -20 l-45 7 26 24 c14 13 40 29 58 37 48 20 86 65 86 101 l0 30
-46 -53 c-25 -28 -52 -52 -59 -52 -7 0 -26 -6 -42 -14 -46 -23 -125 -38 -137
-26 -5 5 -18 10 -27 10 -28 0 -103 86 -112 128 -4 20 -10 49 -13 63 -7 31 11
39 93 39 28 0 55 4 58 10 8 12 74 44 80 38 3 -2 9 -29 15 -59 13 -69 30 -87
65 -71 14 7 33 12 41 12 9 0 30 6 47 14 18 8 40 17 50 20 10 3 17 12 15 19 -7
19 -46 20 -73 3 -13 -9 -39 -16 -58 -16 -37 0 -50 17 -63 87 -4 21 -13 53 -21
71 l-13 32 57 0 c32 -1 69 -7 83 -15 34 -19 116 -20 123 0 4 8 2 17 -3 20 -34
21 -122 37 -228 42 -100 5 -130 3 -167 -11 -59 -23 -98 -70 -124 -151 -19 -59
-20 -70 -8 -89 8 -11 17 -38 21 -58 4 -21 11 -38 16 -38 6 0 10 -8 10 -19 0
-20 83 -111 103 -111 6 -1 26 -13 44 -28 l31 -27 -25 -60 c-13 -33 -32 -66
-41 -72 -9 -7 -39 -13 -68 -13 -47 0 -54 -3 -78 -34 -21 -27 -26 -46 -26 -88
0 -49 -16 -91 -43 -109 -10 -7 -12 -56 -4 -84 4 -11 3 -45 -2 -75 -7 -44 -6
-60 7 -82 15 -26 15 -32 -2 -80 -10 -29 -24 -66 -31 -83 -36 -82 -24 -275 18
-283 18 -4 103 33 113 49 3 5 13 9 22 9 9 0 37 10 62 22 25 12 56 27 70 33 14
7 39 15 55 19 36 9 203 92 226 112 51 46 82 -27 35 -83 -14 -16 -34 -59 -46
-95 -37 -116 -98 -188 -180 -213 -14 -4 -49 -20 -77 -36 -29 -16 -59 -29 -67
-29 -16 0 -133 -48 -209 -86 -16 -8 -36 -14 -46 -14 -9 0 -26 -7 -37 -15 -12
-8 -52 -17 -90 -21 -38 -4 -74 -10 -79 -15 -6 -4 -34 -11 -63 -15 -58 -7 -63
-1 -37 50 8 15 15 34 15 42 0 7 8 29 17 49 13 27 14 38 5 47 -8 8 -14 5 -22
-13 -5 -13 -14 -31 -20 -39 -5 -8 -21 -41 -34 -72 -34 -77 -60 -93 -150 -91
-94 2 -134 18 -199 79 -84 80 -109 130 -115 234 -5 101 -3 105 70 101 75 -3
88 8 81 74 -5 52 -5 55 21 65 32 12 48 48 37 87 -8 25 -4 33 40 74 27 25 49
51 49 57 0 15 -41 52 -51 46 -5 -3 -3 -14 4 -25 19 -32 -15 -52 -75 -44 -58 8
-62 -4 -22 -66 32 -51 29 -83 -8 -87 -15 -2 -36 2 -48 8 -17 9 -20 8 -20 -8 0
-11 7 -26 17 -33 9 -8 22 -29 30 -47 18 -44 4 -62 -49 -62 -30 0 -46 7 -69 29
l-29 29 0 141 c0 77 -4 142 -9 145 -14 9 -21 -33 -21 -139 -1 -72 -5 -105 -15
-119 -8 -11 -15 -36 -15 -55 0 -46 -8 -57 -53 -76 -55 -23 -143 -20 -199 7
l-47 23 -1 122 c0 99 -3 125 -16 138 -25 24 -40 4 -25 -33 21 -49 3 -253 -22
-269 -6 -4 -26 -6 -45 -5 -54 4 -64 -11 -44 -65 26 -69 53 -93 104 -93 24 1
72 9 108 18 57 15 67 22 82 51 22 43 33 50 83 49 23 0 55 3 72 6 25 6 32 4 37
-11 11 -38 28 -183 23 -197 -4 -9 -27 -17 -64 -21 -32 -4 -85 -13 -118 -20
-64 -14 -182 -26 -252 -25 -40 1 -44 -2 -73 -47 -23 -37 -30 -60 -30 -99 0
-34 -6 -59 -18 -75 -10 -13 -29 -46 -42 -72 -13 -26 -30 -53 -38 -60 -15 -12
-29 1 -96 86 -16 20 -35 37 -42 37 -6 0 -17 7 -24 15 -14 17 -70 21 -70 5 0
-6 8 -13 18 -17 60 -22 141 -116 206 -238 20 -38 41 -77 46 -85 4 -8 18 -49
30 -90 12 -41 29 -97 37 -125 8 -27 19 -72 25 -100 12 -60 5 -332 -9 -360 -6
-11 -26 -67 -44 -125 -18 -58 -45 -123 -60 -145 -15 -22 -41 -63 -58 -92 -35
-56 -153 -173 -175 -173 -7 0 -37 10 -65 21 -55 24 -69 47 -56 97 13 53 17
102 7 102 -10 0 -120 -57 -140 -72 -18 -15 -15 -48 6 -54 55 -18 91 -39 103
-60 11 -22 9 -30 -14 -74 -34 -63 -34 -70 3 -70 27 0 30 3 30 33 0 33 24 67
48 67 14 0 42 -52 42 -80 0 -11 7 -20 15 -20 8 0 15 9 15 20 0 15 7 20 29 20
23 0 34 8 52 37 13 21 30 45 39 53 54 58 97 107 103 120 13 26 32 57 44 72 24
28 73 138 73 162 0 13 8 39 17 58 29 59 32 65 38 104 3 22 11 67 16 100 9 54
8 66 -9 100 -10 22 -17 45 -15 52 6 17 58 15 73 -3 7 -8 18 -15 25 -15 7 0 45
-17 85 -37 l72 -37 -7 -56 c-3 -30 -13 -69 -21 -87 -14 -31 -10 -83 6 -83 4 0
11 11 14 25 5 19 13 25 32 25 24 0 26 -3 20 -28 -4 -15 -9 -44 -12 -64 -4 -21
-13 -43 -20 -49 -8 -6 -14 -20 -14 -31 0 -33 -31 -132 -48 -151 -21 -23 -30
-21 -38 9 -5 18 -1 29 11 38 10 7 15 22 13 34 -5 34 -23 31 -26 -3 -2 -16 -10
-34 -18 -38 -8 -4 -14 -20 -15 -35 0 -20 -4 -15 -13 20 -15 55 -31 78 -57 78
-10 0 -23 9 -29 20 -15 28 -29 25 -41 -8 -9 -21 -7 -33 5 -55 19 -35 24 -189
5 -170 -6 6 -17 9 -25 6 -7 -2 -19 5 -26 16 -18 29 -56 28 -64 -3 -3 -13 -5
-30 -4 -37 4 -27 0 -39 -14 -39 -16 0 -26 -21 -26 -53 0 -38 -14 -51 -39 -37
-26 13 -46 2 -54 -30 -5 -19 1 -20 149 -20 l154 0 1 48 c0 67 19 114 51 130
16 7 33 22 38 33 17 30 86 25 165 -12 84 -39 109 -74 108 -146 l-1 -53 1269 0
1269 0 0 2560 0 2560 -1035 0 -1035 0 9 -22 c60 -156 76 -381 36 -501 -7 -23
-16 -58 -20 -77 -10 -46 -42 -90 -65 -90 -10 0 -35 -20 -56 -46 -56 -68 -66
-70 -91 -21 -11 23 -28 62 -38 87 -10 25 -22 55 -28 67 -7 16 -7 30 2 49 9 20
9 34 -1 60 -13 35 -34 45 -44 19 -8 -20 -24 -19 -24 1 0 11 -6 14 -21 9 -14
-5 -28 0 -44 15 -22 21 -55 22 -55 3 0 -4 36 -44 79 -89 78 -80 121 -147 121
-189 0 -12 7 -30 15 -41 18 -23 20 -64 3 -64 -7 0 -22 7 -32 15 -12 9 -42 15
-78 15 -52 0 -62 -4 -95 -34 -40 -35 -93 -123 -93 -153 0 -10 -7 -27 -15 -37
-11 -15 -15 -49 -15 -137 0 -65 3 -124 6 -133 16 -41 24 -6 24 102 0 141 26
238 79 291 10 10 25 28 34 41 13 18 28 24 69 28 53 4 53 4 103 -47 56 -57 72
-92 90 -201 10 -58 10 -78 1 -90 -7 -8 -20 -41 -31 -73 -21 -67 -30 -76 -45
-47 -15 28 -48 26 -56 -4 -3 -14 -4 -33 -1 -43 4 -14 5 -13 6 5 2 36 45 26 49
-10 3 -29 -25 -77 -45 -78 -7 0 -13 -7 -13 -15 0 -22 -44 -47 -72 -40 -13 3
-37 19 -54 34 -16 15 -39 33 -51 40 -12 6 -27 27 -34 46 -15 41 -29 46 -29 10
0 -14 -4 -25 -10 -25 -19 0 -10 -32 10 -37 27 -7 25 -17 -6 -31 -32 -15 -26
-40 22 -96 24 -28 34 -50 34 -73 0 -35 -35 -93 -55 -93 -15 0 -65 -46 -65 -60
0 -5 8 -10 18 -10 11 0 25 -12 32 -27 l13 -28 8 44 c12 63 29 78 63 56 29 -19
34 -56 11 -75 -8 -7 -15 -18 -15 -26 0 -20 -19 -27 -36 -13 -20 17 -29 4 -18
-28 13 -38 26 -38 68 3 37 36 66 40 66 9 0 -31 -60 -113 -91 -124 -17 -6 -47
-24 -67 -41 -21 -17 -42 -35 -49 -40 -19 -15 -126 -12 -167 5 -26 11 -67 15
-148 13 -110 -2 -115 -1 -200 35 -48 20 -93 37 -101 37 -17 0 -156 153 -194
213 -14 23 -29 44 -33 47 -12 8 -38 72 -55 135 -9 33 -23 80 -31 105 -21 67
-32 335 -18 445 12 86 19 110 58 200 18 39 18 39 -5 58 -13 10 -29 15 -38 11
-39 -16 -49 -12 -104 36 -45 41 -66 71 -99 138 l-41 87 1 135 c2 120 8 169 41
323 l8 37 -668 0 -669 0 0 -2560z m2889 1080 c-6 -36 -17 -75 -25 -87 -8 -12
-14 -32 -14 -43 0 -12 -11 -42 -25 -68 -14 -26 -25 -56 -25 -67 0 -23 -77
-145 -91 -145 -13 0 -12 8 7 61 10 27 14 55 10 65 -6 16 -9 14 -22 -14 -12
-30 -34 -37 -34 -11 0 6 -13 30 -30 54 -16 24 -30 54 -30 67 0 44 21 99 50
131 l29 32 11 -32 c15 -40 28 -42 32 -5 2 19 9 28 26 30 12 2 46 27 75 56 28
28 55 49 59 46 4 -3 3 -35 -3 -70z m-1234 -400 c4 -6 24 -18 46 -27 21 -8 39
-18 39 -22 0 -3 12 -19 27 -35 l26 -29 -29 -21 c-75 -54 -103 -87 -120 -144
-9 -31 -23 -64 -31 -73 -7 -8 -13 -29 -13 -45 0 -36 -22 -70 -39 -60 -6 4 -20
27 -31 51 -24 53 -27 167 -6 217 8 18 22 53 32 77 21 51 70 121 83 121 6 0 13
-5 16 -10z m2050 -190 c14 -27 21 -30 52 -28 32 3 38 0 44 -22 14 -50 10 -116
-9 -133 -10 -9 -29 -38 -42 -64 -27 -56 -63 -102 -103 -133 -26 -21 -29 -21
-46 -6 -10 9 -25 16 -32 14 -8 -2 -15 7 -17 19 -4 27 33 83 54 83 30 0 13 28
-21 34 -24 5 -35 12 -35 25 0 28 51 69 90 73 47 4 52 30 8 43 -28 8 -34 15
-36 44 -3 24 3 40 19 57 30 32 55 30 74 -6z m597 -1010 c46 -22 103 -51 128
-64 78 -42 196 -96 207 -96 6 0 35 -16 64 -35 30 -19 57 -35 61 -35 27 0 107
-46 112 -64 11 -40 6 -74 -15 -100 -24 -30 -24 -38 6 -234 9 -62 15 -118 12
-125 -3 -7 -38 -30 -78 -50 -41 -20 -101 -55 -134 -77 -33 -22 -70 -44 -82
-49 -11 -5 -24 -15 -28 -21 -3 -6 -39 -26 -78 -46 -134 -66 -157 -83 -157
-120 0 -30 26 -49 100 -69 78 -21 160 -62 160 -80 0 -7 -24 -30 -52 -51 -29
-21 -69 -55 -88 -75 -19 -21 -66 -55 -105 -74 -38 -20 -80 -45 -92 -57 -18
-17 -30 -19 -61 -14 -34 5 -40 3 -49 -17 -6 -12 -23 -28 -39 -36 -16 -7 -42
-20 -59 -27 -16 -8 -65 -48 -108 -89 -83 -81 -117 -93 -150 -55 -12 15 -30 20
-64 20 -33 1 -61 9 -88 25 -22 14 -54 32 -72 40 -17 8 -40 27 -52 42 -34 46
-54 63 -72 63 -10 0 -37 15 -61 33 -24 18 -70 43 -103 56 -155 60 -147 52
-115 125 21 50 65 96 148 153 71 49 67 64 -29 122 -91 55 -195 144 -205 174
-3 12 -14 30 -23 41 -15 17 -13 20 29 58 25 21 63 49 85 60 22 11 43 25 46 29
9 15 82 49 105 49 11 0 47 9 79 20 32 11 68 20 80 20 12 0 43 11 71 24 47 23
50 23 77 7 30 -17 73 -59 66 -63 -37 -23 -70 -38 -82 -38 -16 0 -52 -48 -43
-57 7 -8 67 16 91 37 11 9 46 25 77 34 31 10 62 24 69 32 6 8 17 14 25 14 7 0
32 13 56 29 24 16 59 32 78 36 19 4 57 14 83 22 41 14 52 14 74 2 14 -8 36
-12 49 -11 29 4 93 -15 115 -35 12 -10 23 -11 42 -4 30 12 45 31 23 31 -24 0
-37 36 -31 87 7 54 -8 89 -25 63 -5 -8 -10 -36 -10 -62 l0 -48 -37 0 c-20 0
-54 8 -75 18 -30 13 -40 25 -49 57 -16 57 -2 150 37 243 8 18 14 65 14 105 0
94 15 147 40 147 11 0 57 -18 102 -40z m-1648 -1531 c18 -26 12 -43 -20 -58
-37 -17 -44 -6 -27 39 18 46 26 49 47 19z m-29 -129 c-3 -5 -13 -10 -21 -10
-8 0 -14 5 -14 10 0 6 9 10 21 10 11 0 17 -4 14 -10z m947 -241 c31 -16 66
-61 61 -76 -7 -17 -35 -16 -59 2 -10 8 -29 15 -41 15 -25 0 -82 -28 -99 -50
-9 -10 -17 -12 -34 -4 -21 9 -20 11 23 56 59 60 108 79 149 57z"/>
<path d="M4362 1583 c-15 -26 -16 -53 -2 -53 14 0 22 24 18 52 l-3 23 -13 -22z"/>
<path d="M4385 1469 c-10 -16 4 -59 19 -59 15 0 24 26 18 53 -4 19 -27 23 -37
6z"/>
<path d="M4560 1425 c0 -8 5 -15 10 -15 6 0 10 7 10 15 0 8 -4 15 -10 15 -5 0
-10 -7 -10 -15z"/>
<path d="M4536 1391 c-4 -7 -5 -15 -2 -18 9 -9 19 4 14 18 -4 11 -6 11 -12 0z"/>
<path d="M4590 1370 c0 -23 26 -38 41 -23 14 14 0 43 -22 43 -12 0 -19 -7 -19
-20z"/>
<path d="M3777 1153 c-4 -3 -7 -10 -7 -14 0 -9 127 -79 144 -79 7 0 31 -13 52
-28 22 -16 52 -32 67 -36 15 -3 47 -20 69 -36 23 -17 54 -30 70 -30 16 0 40
-7 53 -16 25 -16 55 -13 55 5 0 6 -11 13 -24 17 -14 3 -32 16 -40 29 -8 13
-36 31 -61 40 -25 10 -45 21 -45 25 0 5 -12 13 -27 19 -16 6 -35 15 -43 20
-35 23 -149 71 -190 80 -54 13 -65 13 -73 4z"/>
<path d="M2280 5103 c1 -10 7 -36 15 -58 19 -53 19 -56 -9 -97 -13 -20 -27
-55 -31 -78 -4 -25 -13 -43 -23 -46 -10 -3 -29 -12 -44 -20 -14 -8 -50 -14
-80 -14 -29 0 -62 -6 -73 -14 -27 -18 -137 -37 -149 -25 -14 13 -26 11 -26 -5
0 -13 -26 -47 -70 -93 -12 -11 -17 -24 -12 -27 11 -7 69 20 79 38 14 22 80 56
110 56 17 0 50 7 73 15 23 8 59 15 79 15 60 0 139 28 157 55 9 14 25 25 35 25
28 0 112 20 129 30 11 7 15 30 15 92 1 46 5 102 9 126 l9 42 -97 0 c-85 0 -96
-2 -96 -17z"/>
<path d="M1772 4809 c2 -18 9 -34 16 -37 10 -3 13 5 10 29 -2 18 -9 34 -16 37
-10 3 -13 -5 -10 -29z"/>
<path d="M1835 4811 c-3 -5 -1 -12 5 -16 5 -3 10 1 10 9 0 18 -6 21 -15 7z"/>
<path d="M1720 4766 c0 -8 5 -18 10 -21 6 -3 10 3 10 14 0 12 -4 21 -10 21 -5
0 -10 -6 -10 -14z"/>
<path d="M2741 4734 c0 -11 3 -14 6 -6 3 7 2 16 -1 19 -3 4 -6 -2 -5 -13z"/>
<path d="M2293 4474 c-9 -25 24 -119 54 -148 61 -61 70 38 11 120 -33 46 -54
55 -65 28z"/>
<path d="M2607 4459 c-21 -12 -47 -61 -47 -89 0 -28 40 -27 67 3 60 66 47 125
-20 86z"/>
<path d="M2114 4405 c-10 -8 -25 -15 -33 -15 -8 0 -33 -16 -57 -35 -78 -64
-134 -218 -134 -373 0 -108 29 -171 114 -248 l59 -54 72 0 c52 0 76 4 85 15 7
8 18 15 25 15 21 0 104 83 125 125 17 34 20 59 20 185 0 138 -9 196 -36 231
-5 8 -18 32 -29 54 -27 58 -102 115 -152 115 -22 0 -48 -7 -59 -15z m114 -43
c45 -27 77 -71 106 -150 20 -51 26 -81 21 -100 -4 -15 -7 -63 -7 -107 0 -68
-4 -89 -29 -141 -18 -38 -37 -64 -49 -67 -11 -3 -20 -11 -20 -19 -1 -7 -17
-25 -37 -40 -39 -30 -82 -36 -129 -18 -31 12 -144 124 -144 144 0 7 -7 19 -15
26 -21 17 -21 187 0 214 8 11 15 27 15 36 0 17 45 109 73 151 21 30 123 87
159 88 15 1 40 -7 56 -17z"/>
<path d="M3740 4264 c-14 -7 -33 -14 -42 -14 -25 0 -118 -69 -118 -87 0 -10 6
-12 20 -8 37 12 307 8 345 -5 47 -15 63 -3 49 37 -6 21 -26 37 -74 60 -71 35
-136 41 -180 17z"/>
<path d="M2706 2925 c-9 -26 -7 -83 4 -90 17 -10 50 15 50 39 0 12 -11 33 -24
45 -21 19 -24 20 -30 6z"/>
<path d="M2801 2901 c-9 -6 -10 -11 -2 -15 13 -8 31 1 31 15 0 11 -11 11 -29
0z"/>
<path d="M2060 2886 c0 -8 5 -18 10 -21 6 -3 10 -14 10 -23 1 -26 39 -67 51
-55 7 7 5 14 -6 23 -8 7 -15 19 -15 27 0 7 -7 16 -15 19 -8 4 -15 12 -15 19 0
8 -4 17 -10 20 -5 3 -10 -1 -10 -9z"/>
<path d="M2206 2442 c-13 -21 -18 -125 -7 -142 17 -25 22 -5 19 76 -2 48 -6
74 -12 66z"/>
<path d="M1830 1956 c0 -8 5 -18 10 -21 6 -3 10 3 10 14 0 12 -4 21 -10 21 -5
0 -10 -6 -10 -14z"/>
<path d="M1855 1900 c-7 -12 2 -30 16 -30 5 0 9 9 9 20 0 21 -15 27 -25 10z"/>
<path d="M1690 1830 c0 -16 5 -30 10 -30 6 0 10 14 10 30 0 17 -4 30 -10 30
-5 0 -10 -13 -10 -30z"/>
<path d="M1822 1831 c2 -7 7 -12 11 -12 12 1 9 15 -3 20 -7 2 -11 -2 -8 -8z"/>
<path d="M1646 1799 c-12 -38 -14 -65 -7 -77 6 -11 13 -7 30 14 26 33 26 36 1
59 -16 14 -20 15 -24 4z"/>
<path d="M1746 1788 c-20 -28 -20 -42 -2 -57 11 -9 18 -6 35 15 25 32 27 50 5
58 -22 8 -21 9 -38 -16z"/>
<path d="M787 1463 c-13 -12 -7 -23 13 -23 11 0 20 -7 20 -16 0 -8 4 -12 10
-9 6 4 4 16 -6 31 -17 25 -26 29 -37 17z"/>
<path d="M872 1458 c6 -18 28 -21 28 -4 0 9 -7 16 -16 16 -9 0 -14 -5 -12 -12z"/>
<path d="M950 1460 c0 -5 7 -10 16 -10 8 0 12 5 9 10 -3 6 -10 10 -16 10 -5 0
-9 -4 -9 -10z"/>
<path d="M1530 1276 c-28 -46 -37 -124 -17 -151 9 -11 18 -17 22 -14 11 12 46
171 41 185 -9 23 -23 16 -46 -20z"/>
<path d="M1691 1187 c-66 -33 -115 -81 -147 -145 -28 -55 -29 -63 -29 -192 l0
-136 33 -41 c17 -22 32 -46 32 -52 0 -6 5 -11 10 -11 6 0 10 -7 10 -16 0 -9 9
-18 20 -21 11 -3 20 -9 20 -14 0 -14 38 -29 56 -22 16 6 16 7 -2 20 -10 7 -24
13 -32 13 -20 0 -55 40 -88 101 -27 49 -28 58 -28 178 1 105 4 134 21 172 32
70 142 149 198 141 11 -2 49 -17 85 -33 51 -24 72 -41 98 -79 34 -49 41 -68
63 -171 9 -43 9 -65 0 -89 -6 -18 -11 -44 -11 -57 0 -13 -14 -46 -32 -72 -29
-45 -51 -62 -120 -91 -33 -14 -37 -40 -8 -40 36 0 84 26 117 63 31 35 73 117
73 142 0 7 7 26 15 41 19 37 19 74 -1 124 -15 37 -15 43 0 80 9 22 16 49 16
60 0 24 -18 36 -33 21 -19 -19 -27 -12 -27 20 0 29 -2 31 -27 26 -21 -4 -37 3
-67 26 -48 38 -124 76 -151 77 -11 0 -40 -10 -64 -23z"/>
<path d="M1157 1163 c-19 -19 -5 -63 28 -88 37 -29 62 -30 79 -3 8 14 5 23
-14 44 -14 14 -37 32 -52 40 -31 16 -32 16 -41 7z"/>
<path d="M1056 995 c-95 -50 -107 -60 -131 -112 -18 -38 -31 -53 -45 -53 -24
0 -27 -32 -5 -50 22 -19 18 -42 -12 -67 l-28 -22 28 -23 c24 -19 30 -34 37
-91 12 -95 48 -163 111 -209 51 -37 53 -38 143 -38 105 0 109 2 204 94 68 66
87 109 75 167 l-7 34 -12 -42 c-19 -64 -79 -149 -117 -164 -17 -7 -40 -19 -49
-27 -11 -9 -47 -16 -92 -19 -66 -4 -79 -2 -108 19 -44 32 -63 54 -95 116 -24
49 -27 63 -27 165 0 159 25 222 108 274 33 21 52 25 125 26 81 2 89 0 131 -28
44 -30 62 -56 86 -125 15 -43 34 -51 34 -13 0 25 -39 102 -72 144 -7 9 -34 26
-60 38 -57 26 -177 29 -222 6z"/>
<path d="M2250 514 c0 -9 5 -14 12 -12 18 6 21 28 4 28 -9 0 -16 -7 -16 -16z"/>
<path d="M2371 444 c0 -11 3 -14 6 -6 3 7 2 16 -1 19 -3 4 -6 -2 -5 -13z"/>
<path d="M960 236 c0 -23 67 -95 101 -109 12 -5 12 -8 -2 -19 -15 -13 -69 -93
-69 -103 0 -11 20 -4 20 8 1 19 49 50 67 43 13 -5 14 -9 5 -18 -17 -17 -15
-38 3 -38 8 0 15 6 15 13 0 20 33 47 56 47 25 0 44 -18 44 -42 0 -17 13 -18
166 -18 107 0 163 3 159 10 -3 5 -21 10 -39 10 -18 0 -58 4 -87 10 -51 9 -70
16 -171 58 -51 20 -205 121 -232 151 -25 27 -36 27 -36 -3z"/>
<path d="M2322 28 c-21 -21 -13 -28 33 -28 46 0 54 7 33 28 -15 15 -51 15 -66
0z"/>
</g>
</svg>
